<svg width="20" height="20" viewBox="0 0 20 20" fill="none" xmlns="http://www.w3.org/2000/svg">
<path d="M8.53704 11.8502C8.45627 11.8383 8.34891 11.8808 8.29806 11.9448L7.92202 12.4194C7.87138 12.4833 7.85443 12.5977 7.88456 12.6735L8.10764 13.2368C8.13777 13.3126 8.22838 13.3843 8.30895 13.3963L8.90764 13.4846C8.98842 13.4965 9.09577 13.454 9.14641 13.39L9.52245 12.9154C9.57309 12.8516 9.59004 12.7371 9.56012 12.6613L9.33704 12.098C9.30691 12.0223 9.21651 11.9505 9.13573 11.9385L8.53704 11.8502Z" fill="#A0A3A8"/>
<path d="M9.9904 13.7008C9.90963 13.6888 9.80228 13.7313 9.75163 13.7953L9.41012 14.2262C9.35948 14.29 9.34253 14.4045 9.37245 14.4803L9.57376 14.9908C9.60369 15.0666 9.69409 15.1386 9.77486 15.1505L10.3187 15.2307C10.3995 15.2426 10.5062 15.2001 10.5575 15.1361L10.898 14.7054C10.9484 14.6414 10.9653 14.5269 10.9356 14.4512L10.7345 13.9408C10.7044 13.865 10.614 13.793 10.5332 13.7811L9.9904 13.7008Z" fill="#A0A3A8"/>
<path d="M10.75 11.4441C10.6692 11.4321 10.5621 11.4746 10.5112 11.5387L10.0825 12.0802C10.032 12.1443 10.0151 12.2585 10.0444 12.3345L10.2982 12.9757C10.3286 13.0516 10.4183 13.1234 10.4997 13.1355L11.1836 13.2374C11.2644 13.2496 11.3715 13.2069 11.4224 13.1431L11.8511 12.6015C11.9014 12.5375 11.9183 12.423 11.8888 12.3472L11.635 11.7046C11.6051 11.6286 11.5146 11.5569 11.4337 11.5449L10.75 11.4441Z" fill="#A0A3A8"/>
<path d="M12.1922 13.3643C12.1108 13.3523 12.0041 13.3948 11.9526 13.4586L11.6306 13.865C11.5804 13.9288 11.5636 14.0433 11.5929 14.1191L11.7825 14.601C11.813 14.677 11.903 14.7487 11.984 14.7607L12.4973 14.8366C12.5787 14.8485 12.6855 14.8061 12.7369 14.742L13.0596 14.3361C13.1103 14.2722 13.127 14.1578 13.0977 14.082L12.9064 13.5999C12.8759 13.5241 12.7855 13.4521 12.7049 13.4402L12.1922 13.3643Z" fill="#A0A3A8"/>
<path d="M13.7592 14.8689C13.6785 14.857 13.5713 14.8995 13.5203 14.9635L13.2717 15.2761C13.221 15.3402 13.2043 15.4544 13.2342 15.5302L13.3817 15.9012C13.4119 15.977 13.5025 16.0487 13.5833 16.0607L13.9758 16.1188C14.0568 16.1308 14.1637 16.0883 14.215 16.0245L14.4636 15.7114C14.5145 15.6476 14.5314 15.5333 14.5015 15.4576L14.3548 15.087C14.3247 15.0112 14.2343 14.9394 14.1537 14.9275L13.7592 14.8689Z" fill="#A0A3A8"/>
<path d="M15.3006 16.0234C15.2196 16.0115 15.1127 16.0542 15.0614 16.118L14.94 16.2716C14.8894 16.3354 14.8724 16.4499 14.9024 16.5256L14.9743 16.7083C15.0045 16.7843 15.0949 16.8561 15.1754 16.8678L15.3696 16.8962C15.4504 16.908 15.5576 16.8657 15.6088 16.8014L15.7306 16.6483C15.781 16.5844 15.798 16.47 15.7683 16.3942L15.6959 16.2113C15.6657 16.1354 15.5753 16.0636 15.4948 16.0519L15.3006 16.0234Z" fill="#A0A3A8"/>
<path d="M15.8005 14.1253C15.7197 14.1131 15.613 14.1556 15.5613 14.2194L15.4205 14.3967C15.3696 14.4605 15.3527 14.5748 15.3826 14.6505L15.4654 14.8604C15.496 14.9362 15.586 15.0079 15.6668 15.0196L15.8902 15.0525C15.9714 15.0642 16.0786 15.0217 16.1298 14.9579L16.2709 14.7811C16.3215 14.7173 16.3385 14.603 16.309 14.5273L16.2261 14.3182C16.1956 14.2425 16.1058 14.1705 16.0248 14.1585L15.8005 14.1253Z" fill="#A0A3A8"/>
<path d="M17.1387 14.6932C17.0579 14.6815 16.951 14.7242 16.8997 14.7882L16.8524 14.8479C16.8024 14.9119 16.7857 15.0264 16.815 15.1019L16.8434 15.1726C16.874 15.2484 16.9642 15.3199 17.0449 15.3317L17.119 15.3425C17.2 15.3543 17.3067 15.3116 17.3582 15.2478L17.4053 15.1889C17.4555 15.1251 17.4725 15.0107 17.443 14.9349L17.4147 14.8633C17.3841 14.7874 17.2942 14.7158 17.2132 14.7041L17.1387 14.6932Z" fill="#A0A3A8"/>
<path d="M14.3041 12.858C14.2231 12.8461 14.1159 12.8886 14.0649 12.9526L13.7989 13.2885C13.7483 13.3523 13.7313 13.4668 13.7612 13.5425L13.919 13.9407C13.9496 14.0165 14.04 14.0883 14.1205 14.1002L14.5437 14.1625C14.6244 14.1745 14.7316 14.132 14.7827 14.068L15.0486 13.7321C15.0993 13.6683 15.1162 13.5538 15.0865 13.4781L14.9291 13.08C14.8988 13.0041 14.8086 12.9323 14.728 12.9204L14.3041 12.858Z" fill="#A0A3A8"/>
<path d="M16.002 12.3168C15.9212 12.3049 15.8145 12.3474 15.763 12.4112L15.5849 12.6349C15.5345 12.6989 15.5178 12.8132 15.5477 12.8889L15.6536 13.1553C15.6837 13.2311 15.7741 13.3031 15.8551 13.315L16.137 13.3566C16.2177 13.3686 16.3251 13.3261 16.3759 13.2623L16.5547 13.0375C16.6051 12.9737 16.6218 12.8592 16.5921 12.7835L16.4871 12.5181C16.4565 12.4424 16.3663 12.3704 16.2855 12.3585L16.002 12.3168Z" fill="#A0A3A8"/>
<path d="M17.541 12.6436C17.4602 12.6315 17.3529 12.6742 17.302 12.738L17.1612 12.9161C17.1105 12.9801 17.0938 13.0946 17.1233 13.1703L17.2064 13.3819C17.2365 13.4576 17.3269 13.5294 17.4075 13.5411L17.6331 13.574C17.7141 13.5857 17.8208 13.5432 17.8723 13.4792L18.0129 13.3024C18.0635 13.2385 18.0805 13.1243 18.0505 13.0485L17.9673 12.8368C17.9367 12.761 17.8465 12.689 17.7653 12.6771L17.541 12.6436Z" fill="#A0A3A8"/>
<path d="M13.2496 17.1082C13.1687 17.0963 13.0615 17.1388 13.0105 17.2026L12.9021 17.3384C12.8514 17.4022 12.8345 17.5167 12.864 17.5924L12.9282 17.7532C12.9588 17.8289 13.0488 17.9009 13.1295 17.9126L13.2995 17.9379C13.3809 17.9499 13.4876 17.9074 13.5393 17.8436L13.6479 17.708C13.6981 17.6441 13.715 17.5299 13.6855 17.4541L13.6217 17.2932C13.5912 17.2174 13.5008 17.1455 13.4202 17.1335L13.2496 17.1082Z" fill="#A0A3A8"/>
<path d="M11.1068 17.553C11.026 17.5411 10.9189 17.5835 10.868 17.6476L10.691 17.8711C10.6403 17.9351 10.6232 18.0496 10.6525 18.1253L10.7565 18.3888C10.787 18.4645 10.8764 18.5365 10.9576 18.5484L11.2409 18.5903C11.3219 18.6022 11.4284 18.5595 11.4797 18.4955L11.6555 18.2724C11.7059 18.2084 11.7224 18.0939 11.6925 18.0182L11.5885 17.7545C11.5579 17.6787 11.4675 17.6068 11.3866 17.5948L11.1068 17.553Z" fill="#A0A3A8"/>
<path d="M8.78378 17.4982C8.703 17.4862 8.59565 17.5287 8.54501 17.5927L8.34747 17.842C8.29683 17.906 8.28008 18.0203 8.31001 18.096L8.4274 18.3915C8.45754 18.4672 8.54815 18.5392 8.62871 18.5512L8.94344 18.598C9.02401 18.6102 9.13136 18.5675 9.18221 18.5037L9.37954 18.2542C9.43018 18.1902 9.44713 18.0757 9.41721 18L9.30065 17.7047C9.27072 17.6289 9.18032 17.557 9.09955 17.545L8.78378 17.4982Z" fill="#A0A3A8"/>
<path d="M6.90576 17.4407C6.82499 17.4288 6.71764 17.4712 6.66721 17.5353L6.56278 17.6677C6.51235 17.7318 6.49519 17.8462 6.52512 17.9222L6.58685 18.08C6.61677 18.1559 6.70697 18.2277 6.78774 18.2394L6.95578 18.2639C7.03655 18.2756 7.14411 18.2332 7.19496 18.1693L7.30106 18.036C7.35191 17.9722 7.36865 17.8582 7.33851 17.7824L7.27574 17.6255C7.24539 17.5497 7.15478 17.4779 7.07401 17.466L6.90576 17.4407Z" fill="#A0A3A8"/>
<path d="M9.47713 15.7821C9.39636 15.7702 9.28901 15.8126 9.23836 15.8767L9.00399 16.1726C8.95335 16.2366 8.9364 16.3513 8.96633 16.4268L9.10444 16.7771C9.13436 16.8529 9.22476 16.9246 9.30554 16.9364L9.67928 16.991C9.76005 17.0027 9.8674 16.96 9.91804 16.896L10.1514 16.6015C10.202 16.5375 10.219 16.4233 10.1897 16.3473L10.0513 15.9972C10.0214 15.9212 9.93081 15.8495 9.85024 15.8375L9.47713 15.7821Z" fill="#A0A3A8"/>
<path d="M11.627 15.4224C11.5461 15.4105 11.4389 15.453 11.3879 15.517L11.1393 15.8294C11.0886 15.8932 11.0717 16.0077 11.1007 16.0835L11.247 16.4545C11.2769 16.5302 11.3673 16.6022 11.4481 16.6139L11.8438 16.6723C11.9252 16.6842 12.0322 16.6416 12.0834 16.5777L12.332 16.2649C12.3827 16.2011 12.3994 16.0866 12.3697 16.0108L12.2228 15.6402C12.1923 15.5645 12.1021 15.4925 12.0213 15.4808L11.627 15.4224Z" fill="#A0A3A8"/>
<path d="M7.92177 14.0387C7.841 14.0266 7.73365 14.0693 7.68301 14.1333L7.41662 14.4702C7.36598 14.5342 7.34924 14.6487 7.37895 14.7245L7.53653 15.1242C7.56645 15.1999 7.65685 15.2719 7.73763 15.2836L8.16368 15.3464C8.24446 15.3583 8.35181 15.3156 8.40245 15.2516L8.66842 14.9159C8.71906 14.8519 8.73601 14.7374 8.70608 14.6617L8.54872 14.262C8.5188 14.1862 8.4284 14.1143 8.34783 14.1021L7.92177 14.0387Z" fill="#A0A3A8"/>
<path d="M7.40523 15.8992C7.32467 15.8871 7.21711 15.9298 7.16647 15.9936L6.99948 16.2043C6.94884 16.2682 6.93189 16.3826 6.96181 16.4584L7.06142 16.7099C7.09155 16.7859 7.18195 16.8577 7.26252 16.8698L7.52932 16.9096C7.60989 16.9217 7.71724 16.879 7.76788 16.815L7.93529 16.603C7.98593 16.539 8.00267 16.4245 7.97254 16.3487L7.87314 16.0987C7.84301 16.0229 7.7524 15.9509 7.67183 15.939L7.40523 15.8992Z" fill="#A0A3A8"/>
<path d="M5.41758 16.0333C5.33681 16.0213 5.22945 16.0638 5.17881 16.1279L5.03903 16.3043C4.98839 16.3683 4.97144 16.4825 5.00136 16.5585L5.08444 16.7688C5.11436 16.8448 5.20497 16.9163 5.28554 16.9281L5.5084 16.9607C5.58917 16.9724 5.69652 16.9297 5.74717 16.8657L5.88695 16.6891C5.93759 16.6251 5.95433 16.5108 5.92441 16.435L5.84154 16.226C5.81141 16.1502 5.7208 16.0783 5.64023 16.0663L5.41758 16.0333Z" fill="#A0A3A8"/>
<path d="M4.03922 16.0277C3.95845 16.0158 3.85089 16.0582 3.80004 16.1221L3.72429 16.2171C3.67344 16.2809 3.65649 16.3949 3.68641 16.4707L3.73119 16.5837C3.76112 16.6595 3.85173 16.7314 3.93229 16.7434L4.05345 16.7614C4.13423 16.7735 4.24137 16.7308 4.2918 16.6666L4.36651 16.5716C4.41694 16.5073 4.43368 16.3929 4.40355 16.3171L4.35918 16.2045C4.32905 16.1286 4.23865 16.0568 4.15788 16.0451L4.03922 16.0277Z" fill="#A0A3A8"/>
<path d="M5.76635 14.2665C5.68558 14.2546 5.57823 14.297 5.52738 14.3609L5.34971 14.5846C5.29886 14.6484 5.28191 14.7626 5.31205 14.8386L5.41689 15.1037C5.44702 15.1797 5.53742 15.2513 5.6182 15.263L5.90133 15.3042C5.9821 15.3159 6.08945 15.2732 6.14009 15.2092L6.31545 14.9874C6.36609 14.9234 6.38304 14.8091 6.35291 14.7334L6.24807 14.468C6.21794 14.3923 6.12754 14.3203 6.04676 14.3083L5.76635 14.2665Z" fill="#A0A3A8"/>
<path d="M3.9529 14.3939C3.87212 14.3822 3.76456 14.4247 3.71371 14.4885L3.56221 14.6789C3.51136 14.7428 3.49462 14.857 3.52475 14.9328L3.61536 15.16C3.64549 15.2358 3.73631 15.3076 3.81688 15.3193L4.05627 15.3544C4.13705 15.3664 4.24461 15.3239 4.29546 15.2599L4.44738 15.069C4.49823 15.0052 4.51518 14.8909 4.48505 14.8152L4.39506 14.5885C4.36493 14.5128 4.27432 14.441 4.19376 14.4293L3.9529 14.3939Z" fill="#A0A3A8"/>
<path d="M6.34012 12.2165C6.25934 12.2046 6.15199 12.2472 6.10135 12.3111L5.79144 12.7022C5.7408 12.766 5.72405 12.8805 5.75398 12.9562L5.93834 13.4218C5.96847 13.4976 6.05908 13.5696 6.13965 13.5815L6.63413 13.6547C6.7149 13.6667 6.82226 13.6242 6.8729 13.5601L7.18302 13.168C7.23366 13.104 7.2504 12.9897 7.22048 12.9137L7.03633 12.4483C7.0062 12.3724 6.91579 12.3006 6.83502 12.2889L6.34012 12.2165Z" fill="#A0A3A8"/>
<path d="M13.0065 11.1365C12.9255 11.1246 12.8186 11.1671 12.7677 11.2311L12.3946 11.703C12.3442 11.767 12.3272 11.8815 12.3569 11.9572L12.5777 12.5174C12.6076 12.5932 12.6978 12.6652 12.7788 12.6769L13.375 12.7644C13.4558 12.7763 13.5631 12.7336 13.614 12.6696L13.9871 12.1975C14.0375 12.1334 14.0545 12.0192 14.0247 11.9432L13.804 11.3845C13.774 11.3085 13.6839 11.2368 13.6029 11.2248L13.0065 11.1365Z" fill="#A0A3A8"/>
<path d="M15.0059 10.6846C14.9251 10.6727 14.818 10.7153 14.7669 10.7792L14.4992 11.1163C14.4488 11.1801 14.4317 11.2946 14.4618 11.3703L14.62 11.769C14.6503 11.8447 14.7407 11.9167 14.8215 11.9286L15.2469 11.9918C15.3277 12.004 15.4349 11.9613 15.4857 11.8975L15.7525 11.5603C15.8027 11.4963 15.8199 11.382 15.7902 11.3061L15.6324 10.9064C15.6025 10.8306 15.5123 10.7587 15.4313 10.7469L15.0059 10.6846Z" fill="#A0A3A8"/>
<path d="M16.958 10.4473C16.8772 10.4353 16.77 10.4778 16.7188 10.5419L16.4693 10.8562C16.4189 10.92 16.4017 11.0342 16.4319 11.11L16.5807 11.485C16.611 11.5607 16.7012 11.6325 16.7822 11.6445L17.1802 11.7028C17.261 11.7148 17.3677 11.6721 17.4192 11.608L17.6686 11.2927C17.7193 11.2286 17.736 11.1144 17.7063 11.0386L17.5575 10.6653C17.5272 10.5896 17.4368 10.5178 17.356 10.5059L16.958 10.4473Z" fill="#A0A3A8"/>
<path d="M18.6295 10.8085C18.5485 10.7964 18.4415 10.8391 18.3907 10.9031L18.3208 10.9916C18.2702 11.0557 18.2534 11.1701 18.2827 11.2459L18.3246 11.3518C18.3551 11.4275 18.4445 11.4993 18.5259 11.511L18.637 11.5274C18.718 11.5391 18.8249 11.4966 18.8764 11.4326L18.9477 11.3434C18.9982 11.2796 19.0149 11.1653 18.9854 11.0896L18.9442 10.9849C18.9138 10.9092 18.8234 10.8372 18.7427 10.8253L18.6295 10.8085Z" fill="#A0A3A8"/>
<path d="M1.47409 12.2138C1.39352 12.2017 1.28617 12.2442 1.23553 12.3082L1.22674 12.3193C1.1761 12.3833 1.15936 12.4976 1.18928 12.5735L1.19472 12.5871C1.22465 12.6631 1.31526 12.7349 1.39582 12.7466L1.40921 12.7485C1.48999 12.7604 1.59755 12.7179 1.6484 12.6541L1.65761 12.6424C1.70846 12.5786 1.72541 12.4643 1.69548 12.3886L1.69046 12.3758C1.66033 12.3 1.56972 12.2281 1.48915 12.2159L1.47409 12.2138Z" fill="#A0A3A8"/>
<path d="M2.51951 14.3568C2.43894 14.3446 2.33159 14.3873 2.28095 14.4514L2.23261 14.5125C2.18218 14.5765 2.16523 14.691 2.19536 14.7667L2.22382 14.8385C2.25396 14.9143 2.34436 14.9862 2.42513 14.9982L2.50235 15.0095C2.58312 15.0214 2.69027 14.9789 2.74091 14.9149L2.78904 14.8538C2.83947 14.7897 2.85621 14.6755 2.82587 14.5997L2.79699 14.528C2.76665 14.4522 2.67604 14.3804 2.59547 14.3683L2.51951 14.3568Z" fill="#A0A3A8"/>
<path d="M4.30827 12.4421C4.22749 12.4302 4.12014 12.4727 4.06929 12.5367L3.85585 12.8056C3.805 12.8696 3.78826 12.9839 3.81818 13.0596L3.94478 13.3796C3.97492 13.4553 4.06553 13.5273 4.14609 13.539L4.48426 13.5891C4.56503 13.601 4.67238 13.5585 4.72323 13.4947L4.93668 13.2258C4.98753 13.162 5.00448 13.0477 4.97435 12.9719L4.84774 12.652C4.81761 12.576 4.72721 12.5042 4.64643 12.4923L4.30827 12.4421Z" fill="#A0A3A8"/>
<path d="M2.61692 12.5956C2.53615 12.5837 2.4288 12.6264 2.37816 12.6904L2.23858 12.867C2.18794 12.931 2.1712 13.0453 2.20112 13.1211L2.28399 13.3301C2.31412 13.4059 2.40473 13.4778 2.4853 13.4898L2.70795 13.5228C2.78852 13.535 2.89587 13.4923 2.94672 13.4285L3.0865 13.2518C3.13715 13.1878 3.1541 13.0736 3.12417 12.9976L3.0411 12.7875C3.01117 12.7115 2.92056 12.6398 2.84 12.628L2.61692 12.5956Z" fill="#A0A3A8"/>
<path d="M5.05525 10.5569C4.97447 10.545 4.86712 10.5877 4.81669 10.6517L4.56934 10.9654C4.51891 11.0294 4.50196 11.1439 4.53189 11.2196L4.67837 11.5902C4.70829 11.6662 4.7989 11.738 4.87947 11.7499L5.27518 11.8083C5.35595 11.8202 5.46331 11.7777 5.51395 11.7137L5.76108 11.4013C5.81172 11.3373 5.82867 11.2228 5.79875 11.147L5.65185 10.775C5.62193 10.6992 5.53152 10.6272 5.45075 10.6155L5.05525 10.5569Z" fill="#A0A3A8"/>
<path d="M7.08145 10.2181C7.00068 10.2062 6.89333 10.2489 6.84248 10.3127L6.50117 10.7419C6.45032 10.8057 6.43358 10.92 6.46371 10.9957L6.66607 11.5055C6.6962 11.5812 6.78681 11.6532 6.86759 11.6652L7.40853 11.7453C7.4893 11.7572 7.59665 11.7148 7.64729 11.6509L7.98755 11.2213C8.03819 11.1575 8.05514 11.043 8.02522 10.9673L7.82391 10.4567C7.79398 10.3809 7.70358 10.3092 7.62281 10.2972L7.08145 10.2181Z" fill="#A0A3A8"/>
<path d="M9.27516 9.80706C9.19438 9.79513 9.08703 9.83803 9.03618 9.90185L8.66893 10.3639C8.61808 10.4279 8.60113 10.5422 8.63126 10.6179L8.84889 11.1673C8.87882 11.243 8.96943 11.315 9.0502 11.3269L9.63529 11.4138C9.71607 11.4257 9.82342 11.3832 9.87427 11.3194L10.2405 10.8573C10.2911 10.7935 10.3083 10.679 10.279 10.6031L10.0628 10.0525C10.0327 9.97656 9.94228 9.90479 9.8615 9.89244L9.27516 9.80706Z" fill="#A0A3A8"/>
<path d="M11.5793 9.39831C11.4985 9.38638 11.3914 9.42886 11.3403 9.49268L10.9448 9.98989C10.8942 10.0537 10.8774 10.1682 10.9067 10.2439L11.1409 10.8359C11.1714 10.9119 11.2614 10.9837 11.3422 10.9954L11.9719 11.0881C12.0524 11.1 12.1594 11.0573 12.2106 10.9933L12.6047 10.4959C12.6549 10.4318 12.6721 10.3176 12.6421 10.2418L12.4078 9.64942C12.3776 9.5743 12.2872 9.50231 12.2065 9.48996L11.5793 9.39831Z" fill="#A0A3A8"/>
<path d="M13.8636 9.00289C13.7829 8.99097 13.6757 9.03366 13.6247 9.09769L13.3039 9.5024C13.2532 9.56685 13.2363 9.68132 13.266 9.75707L13.4556 10.2365C13.4859 10.3124 13.5757 10.3842 13.6571 10.3962L14.1677 10.4721C14.2489 10.484 14.3554 10.4416 14.4071 10.3777L14.7279 9.97282C14.7781 9.90857 14.7951 9.79411 14.7655 9.71857L14.5757 9.23748C14.5456 9.16151 14.4552 9.08995 14.3744 9.07781L13.8636 9.00289Z" fill="#A0A3A8"/>
<path d="M15.9722 8.70222C15.8914 8.69029 15.7843 8.73277 15.733 8.7968L15.4671 9.13246C15.4168 9.19628 15.3997 9.31096 15.429 9.38671L15.5866 9.78451C15.6171 9.86027 15.7069 9.93225 15.7879 9.9446L16.2125 10.0065C16.2934 10.0185 16.4002 9.97599 16.4516 9.91174L16.7184 9.57609C16.7691 9.51185 16.7858 9.39759 16.7561 9.32184L16.5962 8.92382C16.5657 8.84828 16.4757 8.7763 16.3947 8.76416L15.9722 8.70222Z" fill="#A0A3A8"/>
<path d="M17.9364 8.81938C17.8556 8.80724 17.7489 8.84993 17.6976 8.91375L17.563 9.08367C17.5124 9.14771 17.4957 9.26217 17.5248 9.33792L17.6047 9.53819C17.6346 9.61373 17.7244 9.68593 17.8058 9.69806L18.0197 9.72987C18.1004 9.74201 18.2074 9.69932 18.259 9.63549L18.3938 9.46557C18.4442 9.40154 18.461 9.28728 18.4313 9.21174L18.3511 9.01064C18.3208 8.9351 18.2304 8.86311 18.1496 8.85097L17.9364 8.81938Z" fill="#A0A3A8"/>
<path d="M18.1604 6.90404C18.0794 6.89211 17.9725 6.93459 17.9212 6.99841L17.7848 7.16938C17.7339 7.23362 17.717 7.34809 17.7467 7.42363L17.827 7.62682C17.8572 7.70279 17.9474 7.77477 18.0284 7.78712L18.2458 7.81892C18.3265 7.83127 18.4337 7.78837 18.4848 7.72476L18.6204 7.55379C18.6708 7.48976 18.6879 7.37508 18.658 7.29954L18.5775 7.09593C18.5473 7.02039 18.4569 6.94798 18.3761 6.93605L18.1604 6.90404Z" fill="#A0A3A8"/>
<path d="M16.6142 6.83639C16.5336 6.82446 16.4262 6.86694 16.3754 6.93076L16.1617 7.19966C16.1111 7.26349 16.0944 7.37774 16.1241 7.4535L16.2505 7.77157C16.2808 7.84712 16.3712 7.91889 16.452 7.93103L16.7899 7.98041C16.8707 7.99234 16.9779 7.94986 17.0289 7.88604L17.2417 7.61798C17.2924 7.55373 17.3095 7.43927 17.2798 7.36372L17.1538 7.04627C17.1235 6.97052 17.0333 6.89854 16.9527 6.88661L16.6142 6.83639Z" fill="#A0A3A8"/>
<path d="M14.742 6.8315C14.661 6.81957 14.5541 6.86205 14.5028 6.92587L14.2283 7.27011C14.1774 7.33456 14.1611 7.44882 14.1904 7.52457L14.3522 7.93095C14.3827 8.00671 14.4729 8.07848 14.5537 8.09125L14.9881 8.15633C15.0687 8.16867 15.176 8.12578 15.2269 8.06195L15.4993 7.71751C15.5493 7.65285 15.5661 7.5388 15.5368 7.46284L15.3754 7.05582C15.3451 6.9807 15.2553 6.90809 15.1743 6.89553L14.742 6.8315Z" fill="#A0A3A8"/>
<path d="M12.4903 7.30628C12.4097 7.29436 12.3024 7.33684 12.2515 7.40066L11.9111 7.82902C11.8604 7.89284 11.8437 8.00731 11.8732 8.08285L12.0743 8.58968C12.1048 8.66522 12.195 8.73721 12.2758 8.74914L12.814 8.82845C12.8948 8.84079 13.0017 8.79789 13.0534 8.73407L13.3918 8.30697C13.4424 8.24314 13.4594 8.12868 13.4303 8.05313L13.23 7.54631C13.1995 7.47034 13.1095 7.39836 13.0289 7.38643L12.4903 7.30628Z" fill="#A0A3A8"/>
<path d="M10.1427 7.84566C10.0622 7.83373 9.95525 7.87621 9.90398 7.94004L9.51434 8.43264C9.4637 8.49688 9.44695 8.61135 9.47688 8.68731L9.7079 9.27031C9.73804 9.34606 9.82865 9.41805 9.90921 9.43039L10.5303 9.52205C10.6111 9.5344 10.7184 9.4915 10.7693 9.42746L11.1587 8.93654C11.2093 8.87209 11.2261 8.75783 11.1964 8.68208L10.9654 8.09678C10.935 8.02123 10.8448 7.94883 10.7638 7.93669L10.1427 7.84566Z" fill="#A0A3A8"/>
<path d="M7.73505 7.89371C7.65427 7.88178 7.54692 7.92426 7.49607 7.9883L7.05014 8.55058C6.99949 8.61524 6.98254 8.72929 7.01247 8.80483L7.27572 9.47133C7.30585 9.54708 7.39625 9.61907 7.47703 9.63141L8.18558 9.73646C8.26636 9.7486 8.37392 9.70591 8.42477 9.64209L8.87175 9.08085C8.9226 9.01619 8.93955 8.90214 8.90963 8.82618L8.64512 8.15905C8.6152 8.08351 8.52459 8.01153 8.44381 7.9996L7.73505 7.89371Z" fill="#A0A3A8"/>
<path d="M5.91193 8.91416C5.83137 8.90181 5.72381 8.9445 5.67316 9.00832L5.42205 9.32536C5.37141 9.38918 5.35467 9.50406 5.38459 9.57961L5.53317 9.95439C5.5633 10.0308 5.65391 10.1025 5.73448 10.1143L6.13438 10.1729C6.21515 10.1846 6.3225 10.1421 6.37314 10.0781L6.62279 9.76334C6.67343 9.69909 6.69017 9.58463 6.66025 9.50909L6.51167 9.1343C6.48154 9.05834 6.39093 8.98635 6.31036 8.9738L5.91193 8.91416Z" fill="#A0A3A8"/>
<path d="M3.19625 10.638C3.11547 10.6261 3.00812 10.6686 2.95727 10.7324L2.76266 10.9781C2.71202 11.0419 2.69507 11.1564 2.72499 11.2321L2.83967 11.522C2.8698 11.5977 2.9602 11.6697 3.04098 11.6816L3.35005 11.7272C3.43083 11.7392 3.53818 11.6967 3.58903 11.6329L3.78385 11.3874C3.83449 11.3236 3.85123 11.2091 3.8211 11.1336L3.70559 10.8433C3.67546 10.7676 3.58464 10.6958 3.50407 10.6839L3.19625 10.638Z" fill="#A0A3A8"/>
<path d="M1.6697 10.6258C1.58913 10.6137 1.48157 10.6561 1.43093 10.72L1.32546 10.8531C1.27482 10.9169 1.25787 11.0313 1.28801 11.1071L1.35037 11.2638C1.3805 11.3396 1.47111 11.4116 1.55168 11.4237L1.71804 11.4486C1.7986 11.4607 1.90616 11.4183 1.9568 11.3544L2.06227 11.2214C2.11291 11.1575 2.12986 11.0431 2.09973 10.9673L2.03737 10.8106C2.00724 10.7348 1.91663 10.6628 1.83606 10.6507L1.6697 10.6258Z" fill="#A0A3A8"/>
<path d="M4.16555 8.55284C4.08477 8.54091 3.97742 8.58339 3.92678 8.64721L3.62503 9.02807C3.57438 9.09231 3.55743 9.20678 3.58757 9.28232L3.76669 9.73558C3.79683 9.81091 3.88723 9.88353 3.968 9.89566L4.44868 9.96723C4.52945 9.97916 4.63701 9.93668 4.68765 9.87306L4.99213 9.49053C5.04277 9.4265 5.05972 9.31225 5.02958 9.2367L4.8492 8.78302C4.81907 8.70748 4.72846 8.6355 4.64768 8.62357L4.16555 8.55284Z" fill="#A0A3A8"/>
<path d="M5.79095 6.74909C5.71018 6.73716 5.60282 6.77964 5.55197 6.84346L5.16945 7.32497C5.1186 7.3888 5.10185 7.50326 5.13178 7.57901L5.35883 8.15155C5.38896 8.2273 5.47957 8.29929 5.56014 8.31122L6.16741 8.4012C6.24818 8.41355 6.35554 8.37065 6.40639 8.30682L6.79017 7.82364C6.84102 7.75982 6.85776 7.64535 6.82763 7.56981L6.60079 6.99811C6.57065 6.92319 6.48005 6.85058 6.39927 6.83865L5.79095 6.74909Z" fill="#A0A3A8"/>
<path d="M9.02965 6.45218C8.94888 6.44025 8.84152 6.48273 8.79067 6.54656L8.50524 6.90628C8.4546 6.9701 8.43786 7.08457 8.46799 7.16011L8.63729 7.58554C8.66742 7.66108 8.75824 7.73307 8.8388 7.74499L9.29206 7.81196C9.37284 7.82389 9.48019 7.78141 9.53104 7.71737L9.81501 7.35933C9.86565 7.29529 9.8826 7.18083 9.85246 7.10529L9.68275 6.67797C9.65262 6.60222 9.56201 6.53045 9.48144 6.51831L9.02965 6.45218Z" fill="#A0A3A8"/>
<path d="M7.30941 5.33227C7.22863 5.32013 7.12128 5.36282 7.07043 5.42664L6.72494 5.86191C6.6743 5.92573 6.65735 6.0402 6.68727 6.11616L6.8913 6.6324C6.92144 6.70795 7.01184 6.77993 7.09261 6.79249L7.64192 6.8741C7.7227 6.88645 7.83005 6.84355 7.88069 6.77972L8.22639 6.34362C8.27703 6.27917 8.29377 6.16492 8.26363 6.08937L8.05877 5.57271C8.02864 5.49758 7.93802 5.42539 7.85725 5.41283L7.30941 5.33227Z" fill="#A0A3A8"/>
<path d="M10.9898 5.75615C10.9088 5.74402 10.8016 5.78671 10.7502 5.85053L10.4461 6.23473C10.3955 6.29877 10.3787 6.41323 10.4082 6.48898L10.5878 6.94371C10.6183 7.01925 10.7087 7.09124 10.7897 7.10358L11.2735 7.17599C11.3547 7.18875 11.4616 7.14544 11.5129 7.08161L11.8174 6.69741C11.868 6.63275 11.8852 6.5187 11.8555 6.44316L11.6761 5.98822C11.646 5.91289 11.5556 5.84028 11.475 5.82835L10.9898 5.75615Z" fill="#A0A3A8"/>
<path d="M13.2041 5.12623C13.1236 5.1141 13.0162 5.15679 12.9647 5.2204L12.6379 5.63076C12.5876 5.69479 12.5707 5.80926 12.6002 5.88501L12.7927 6.37092C12.8233 6.44688 12.9133 6.51845 12.9942 6.53058L13.5115 6.60634C13.5923 6.61847 13.6994 6.57578 13.7511 6.51196L14.0774 6.10202C14.128 6.03819 14.1452 5.92373 14.1152 5.84818L13.9227 5.36312C13.8922 5.28757 13.802 5.21559 13.7212 5.20324L13.2041 5.12623Z" fill="#A0A3A8"/>
<path d="M15.4081 4.8902C15.3274 4.87806 15.2206 4.92075 15.1694 4.98437L14.9559 5.25411C14.9053 5.31814 14.8885 5.43261 14.9178 5.50836L15.0442 5.82706C15.0746 5.90219 15.1648 5.97396 15.2458 5.98652L15.585 6.03632C15.6657 6.04825 15.7725 6.00577 15.8239 5.94195L16.0376 5.67305C16.0882 5.60922 16.105 5.49434 16.0757 5.41921L15.9493 5.10051C15.9187 5.02497 15.8283 4.95298 15.7474 4.94063L15.4081 4.8902Z" fill="#A0A3A8"/>
<path d="M17.0977 5.15495C17.017 5.14281 16.9098 5.1855 16.859 5.24933L16.7205 5.42511C16.6698 5.48914 16.6531 5.60361 16.6828 5.67957L16.765 5.88778C16.7949 5.96354 16.8853 6.03552 16.9661 6.04745L17.1888 6.08051C17.2696 6.09244 17.3763 6.04996 17.4275 5.98572L17.5661 5.80994C17.6167 5.7457 17.6335 5.63123 17.6035 5.55548L17.5215 5.34852C17.4916 5.27256 17.4012 5.20057 17.3204 5.18843L17.0977 5.15495Z" fill="#A0A3A8"/>
<path d="M13.7235 3.10401C13.6427 3.09208 13.5355 3.13456 13.4847 3.1988L13.1798 3.5851C13.1292 3.64934 13.1124 3.76381 13.1421 3.83977L13.3213 4.29554C13.3518 4.37108 13.4416 4.44307 13.5224 4.45562L14.0099 4.52761C14.0911 4.54016 14.1976 4.49705 14.2493 4.43344L14.5551 4.04756C14.6057 3.9829 14.622 3.86885 14.5925 3.79352L14.4113 3.33566C14.381 3.26074 14.2906 3.18813 14.2098 3.1762L13.7235 3.10401Z" fill="#A0A3A8"/>
<path d="M15.6153 3.55175C15.5345 3.53961 15.4274 3.5823 15.3765 3.64613L15.3539 3.67563C15.3035 3.74029 15.2867 3.85434 15.316 3.9303L15.329 3.9642C15.3585 4.04017 15.4483 4.11215 15.5297 4.12492L15.5686 4.13015C15.6494 4.1427 15.7565 4.0996 15.807 4.03535L15.8298 4.00626C15.88 3.94202 15.8963 3.82756 15.8666 3.7518L15.8528 3.71686C15.8225 3.64132 15.7318 3.56933 15.6511 3.55698L15.6153 3.55175Z" fill="#A0A3A8"/>
<path d="M12.3834 1.73777C12.3026 1.72584 12.1959 1.76853 12.1444 1.83256L11.9234 2.11088C11.873 2.17492 11.856 2.28938 11.8857 2.36513L12.0169 2.69618C12.0473 2.77194 12.1371 2.84392 12.2185 2.85627L12.5704 2.90817C12.6512 2.92093 12.7584 2.87761 12.8096 2.81421L13.0319 2.53422C13.0821 2.47018 13.0988 2.35593 13.0691 2.28038L12.9371 1.9485C12.9065 1.87295 12.8161 1.80138 12.7353 1.78925L12.3834 1.73777Z" fill="#A0A3A8"/>
<path d="M11.4607 3.55382C11.3801 3.54148 11.2729 3.58437 11.2215 3.64862L10.8427 4.12803C10.7921 4.19228 10.7753 4.30674 10.8048 4.38229L11.0304 4.95106C11.061 5.02681 11.1507 5.09879 11.2315 5.11093L11.8361 5.2007C11.9171 5.21326 12.0236 5.17015 12.075 5.10633L12.4542 4.62607C12.5049 4.56204 12.5216 4.44757 12.4923 4.37182L12.2692 3.80347C12.2389 3.72772 12.1487 3.65573 12.0681 3.6438L11.4607 3.55382Z" fill="#A0A3A8"/>
<path d="M9.32464 4.45936C9.24387 4.44701 9.13651 4.48991 9.08566 4.55332L8.80044 4.91262C8.7498 4.97644 8.73285 5.09133 8.76257 5.16687L8.93123 5.59439C8.96115 5.66993 9.05155 5.74192 9.13233 5.75427L9.5858 5.82039C9.66657 5.83274 9.77392 5.78984 9.82477 5.7256L10.1098 5.36629C10.1604 5.30205 10.1772 5.18759 10.1475 5.11183L9.97942 4.68662C9.94949 4.61065 9.85888 4.53867 9.77832 4.52653L9.32464 4.45936Z" fill="#A0A3A8"/>
<path d="M7.39724 3.39751C7.31646 3.38558 7.20911 3.42806 7.15826 3.49188L6.83181 3.9035C6.78117 3.96753 6.76422 4.08179 6.79436 4.15733L6.98813 4.64533C7.01826 4.72087 7.10887 4.79286 7.18965 4.805L7.70903 4.88221C7.78981 4.89435 7.89716 4.85166 7.9478 4.78784L8.27299 4.37622C8.32363 4.31219 8.34037 4.19772 8.31045 4.12176L8.11751 3.63335C8.08759 3.55759 7.99698 3.48582 7.91641 3.47347L7.39724 3.39751Z" fill="#A0A3A8"/>
<path d="M9.69266 2.59347C9.61189 2.58133 9.50454 2.62402 9.45369 2.68785L9.20425 3.00216C9.15361 3.06598 9.13666 3.18044 9.16679 3.25599L9.31516 3.62952C9.34529 3.70527 9.4359 3.77705 9.51668 3.78897L9.9126 3.84736C9.99337 3.85929 10.1005 3.81681 10.1518 3.75298L10.401 3.43867C10.4517 3.37485 10.4686 3.26038 10.4391 3.18463L10.2924 2.81131C10.2623 2.73535 10.1725 2.66378 10.0913 2.65164L9.69266 2.59347Z" fill="#A0A3A8"/>
<path d="M10.9583 1.42564C10.8773 1.41329 10.7704 1.45619 10.7191 1.5196L10.5961 1.67445C10.5454 1.73827 10.5283 1.85274 10.5574 1.9287L10.6304 2.11348C10.6605 2.18944 10.7501 2.26143 10.8315 2.27335L11.0278 2.30349C11.109 2.31604 11.2155 2.27294 11.2672 2.2089L11.3906 2.05363C11.4413 1.98897 11.458 1.87492 11.4281 1.79875L11.3551 1.61481C11.3245 1.53948 11.2341 1.46707 11.1535 1.45431L10.9583 1.42564Z" fill="#A0A3A8"/>
<path d="M9.53614 1.40357C9.45557 1.39101 9.34801 1.4337 9.29737 1.49731L9.27603 1.52431C9.22538 1.58834 9.20844 1.70281 9.23857 1.77856L9.25133 1.80995C9.28147 1.88528 9.37208 1.9579 9.45264 1.97024L9.48759 1.97548C9.56815 1.98761 9.6755 1.94492 9.72615 1.8811L9.74686 1.85494C9.79729 1.7907 9.81404 1.67623 9.7839 1.60069L9.77114 1.56846C9.741 1.49292 9.65039 1.42072 9.56983 1.40817L9.53614 1.40357Z" fill="#A0A3A8"/>
<path d="M7.88037 1.54975C7.7998 1.53782 7.69245 1.5803 7.64181 1.64412L7.35638 2.00531C7.30574 2.06934 7.289 2.18381 7.31892 2.25956L7.48717 2.68499C7.5173 2.76074 7.6077 2.83272 7.68847 2.84486L8.14194 2.91224C8.22272 2.92438 8.33007 2.88169 8.38092 2.81807L8.66614 2.45836C8.71678 2.39453 8.73373 2.28007 8.70381 2.2041L8.53535 1.77742C8.50543 1.70167 8.41482 1.62968 8.33425 1.61755L7.88037 1.54975Z" fill="#A0A3A8"/>
<path d="M5.64393 2.51386C5.56337 2.50152 5.45602 2.54421 5.40538 2.60803L5.17352 2.90121C5.12288 2.96545 5.10613 3.07991 5.13606 3.15567L5.27271 3.50116C5.30263 3.57649 5.39324 3.64868 5.47381 3.66082L5.84336 3.71523C5.92413 3.72737 6.03149 3.68447 6.08234 3.62064L6.31399 3.32872C6.36463 3.2649 6.38158 3.15044 6.35165 3.07447L6.2148 2.72857C6.18487 2.65281 6.09426 2.58083 6.0137 2.56848L5.64393 2.51386Z" fill="#A0A3A8"/>
<path d="M5.35717 4.75275C5.27639 4.74062 5.16904 4.78331 5.11819 4.84692L4.81141 5.2328C4.76056 5.29662 4.74382 5.41109 4.77375 5.48684L4.95538 5.94449C4.98552 6.02004 5.07613 6.09202 5.15669 6.10458L5.64281 6.17719C5.72358 6.18912 5.83093 6.14664 5.88157 6.0824L6.18647 5.69694C6.23711 5.6327 6.25406 5.51802 6.22413 5.44248L6.04333 4.98483C6.01341 4.90949 5.9228 4.83688 5.84223 4.82495L5.35717 4.75275Z" fill="#A0A3A8"/>
<path d="M4.16277 3.86159C4.08199 3.84966 3.97464 3.89214 3.924 3.95596L3.73504 4.19452C3.6844 4.25855 3.66766 4.37302 3.69758 4.44877L3.80933 4.73065C3.83946 4.80619 3.93007 4.87817 4.01064 4.88968L4.31009 4.93342C4.39086 4.94577 4.49821 4.90308 4.54906 4.83904L4.73677 4.60195C4.78741 4.53771 4.80457 4.42324 4.77465 4.3477L4.66374 4.06562C4.63381 3.98965 4.54341 3.91767 4.46285 3.90574L4.16277 3.86159Z" fill="#A0A3A8"/>
<path d="M2.78721 4.70424C2.70644 4.69231 2.5993 4.735 2.54866 4.79945L2.44424 4.93191C2.3936 4.99657 2.37706 5.11062 2.40699 5.18616L2.46914 5.34311C2.49927 5.41865 2.58988 5.49064 2.67045 5.50319L2.83702 5.5281C2.91779 5.54065 3.02514 5.49754 3.07558 5.4333L3.18 5.30126C3.23043 5.23639 3.24759 5.12255 3.21766 5.04596L3.15593 4.88818C3.12601 4.81284 3.03582 4.74065 2.95504 4.72872L2.78721 4.70424Z" fill="#A0A3A8"/>
<path d="M3.87458 6.39085C3.7938 6.37872 3.68645 6.42141 3.63581 6.48502L3.33929 6.86064C3.28865 6.92468 3.27191 7.03935 3.30183 7.1149L3.47824 7.55978C3.50816 7.63554 3.59877 7.70731 3.67955 7.71945L4.15206 7.78872C4.23283 7.80085 4.34018 7.75795 4.39103 7.69413L4.68839 7.31976C4.73924 7.25594 4.75598 7.14147 4.72606 7.06593L4.54986 6.62125C4.51973 6.54529 4.42912 6.4733 4.34855 6.46117L3.87458 6.39085Z" fill="#A0A3A8"/>
<path d="M2.64722 8.53211C2.56645 8.51997 2.45909 8.56266 2.40824 8.62648L2.25088 8.82486C2.20024 8.8889 2.18329 9.00336 2.21342 9.07933L2.30717 9.31558C2.3373 9.39112 2.42791 9.46311 2.50848 9.47504L2.76001 9.51229C2.84079 9.52463 2.94814 9.48173 2.99857 9.41728L3.15531 9.21974C3.20574 9.15487 3.22269 9.04082 3.19276 8.96465L3.10006 8.73007C3.07014 8.65494 2.97953 8.58254 2.89896 8.57019L2.64722 8.53211Z" fill="#A0A3A8"/>
<path d="M1.38162 8.34953C1.30084 8.33698 1.19349 8.38009 1.14285 8.44391L1.05224 8.5588C1.0016 8.62283 0.984858 8.73709 1.01499 8.81263L1.06856 8.94781C1.0987 9.02356 1.18951 9.09555 1.27008 9.1079L1.41489 9.12966C1.49545 9.14221 1.6028 9.09911 1.65345 9.03549L1.74406 8.92061C1.7947 8.85595 1.81165 8.7419 1.78172 8.66636L1.72836 8.53117C1.69844 8.45563 1.60804 8.38364 1.52726 8.37109L1.38162 8.34953Z" fill="#A0A3A8"/>
<path d="M2.23681 6.53367C2.15604 6.52132 2.04848 6.56401 1.99783 6.62762L1.84591 6.81847C1.79527 6.88229 1.77832 6.99676 1.80866 7.0723L1.89927 7.29914C1.92962 7.37468 2.02023 7.44667 2.10079 7.45902L2.34019 7.49459C2.42075 7.50736 2.52831 7.46404 2.57895 7.40063L2.73108 7.20853C2.78173 7.14471 2.79868 7.03066 2.76854 6.9547L2.67877 6.72911C2.64864 6.65378 2.55803 6.58159 2.47725 6.56924L2.23681 6.53367Z" fill="#A0A3A8"/>
</svg>
